HIERARCHY
ROOT Pelvis
{
	OFFSET 0.000000 0.000000 0.000000
	CHANNELS 6 Xposition Yposition Zposition Zrotation Yrotation Xrotation 
	JOINT Left_hip
	{
		OFFSET 0.069463 -0.088608 -0.009542
		CHANNELS 3 Zrotation Yrotation Xrotation
		JOINT Left_knee
		{
			OFFSET 0.030639 -0.359740 -0.005288
			CHANNELS 3 Zrotation Yrotation Xrotation
			JOINT Left_ankle
			{
				OFFSET -0.011068 -0.376034 -0.042462
				CHANNELS 3 Zrotation Yrotation Xrotation
				JOINT Left_foot
				{
					OFFSET 0.023192 -0.053321 0.111332
					CHANNELS 3 Zrotation Yrotation Xrotation
					End Site
					{
						OFFSET 0.000000 0.000000 0.000000
					}
				}
			}
		}
	}
	JOINT Right_hip
	{
		OFFSET -0.067438 -0.088025 -0.006263
		CHANNELS 3 Zrotation Yrotation Xrotation
		JOINT Right_knee
		{
			OFFSET -0.035962 -0.366229 -0.008063
			CHANNELS 3 Zrotation Yrotation Xrotation
			JOINT Right_ankle
			{
				OFFSET 0.013608 -0.375719 -0.040481
				CHANNELS 3 Zrotation Yrotation Xrotation
				JOINT Right_foot
				{
					OFFSET -0.021034 -0.045527 0.114617
					CHANNELS 3 Zrotation Yrotation Xrotation
					End Site
					{
						OFFSET 0.000000 0.000000 0.000000
					}
				}
			}
		}
	}
	JOINT Spine1
	{
		OFFSET -0.002610 0.101823 -0.019986
		CHANNELS 3 Zrotation Yrotation Xrotation
		JOINT Spine2
		{
			OFFSET 0.004114 0.128714 -0.000938
			CHANNELS 3 Zrotation Yrotation Xrotation
			JOINT Spine3
			{
				OFFSET 0.002191 0.048470 0.027684
				CHANNELS 3 Zrotation Yrotation Xrotation
				JOINT Neck
				{
					OFFSET -0.002856 0.198873 -0.044022
					CHANNELS 3 Zrotation Yrotation Xrotation
					JOINT Head
					{
						OFFSET 0.002981 0.062960 0.049860
						CHANNELS 3 Zrotation Yrotation Xrotation
						End Site
						{
							OFFSET 0.000000 0.000000 0.000000
						}
					}
				}
				JOINT Left_collar
				{
					OFFSET 0.073708 0.112550 -0.033440
					CHANNELS 3 Zrotation Yrotation Xrotation
					JOINT Left_shoulder
					{
						OFFSET 0.083291 0.030786 -0.008013
						CHANNELS 3 Zrotation Yrotation Xrotation
						JOINT Left_elbow
						{
							OFFSET 0.245601 -0.011792 -0.027873
							CHANNELS 3 Zrotation Yrotation Xrotation
							JOINT Left_wrist
							{
								OFFSET 0.232258 0.008622 -0.000487
								CHANNELS 3 Zrotation Yrotation Xrotation
								JOINT Left_palm
								{
									OFFSET 0.077300 -0.009457 -0.012851
									CHANNELS 3 Zrotation Yrotation Xrotation
									End Site
									{
										OFFSET 0.000000 0.000000 0.000000
									}
								}
							}
						}
					}
				}
				JOINT Right_collar
				{
					OFFSET -0.075339 0.110574 -0.037874
					CHANNELS 3 Zrotation Yrotation Xrotation
					JOINT Right_shoulder
					{
						OFFSET -0.086522 0.031207 -0.009986
						CHANNELS 3 Zrotation Yrotation Xrotation
						JOINT Right_elbow
						{
							OFFSET -0.237313 -0.011478 -0.019859
							CHANNELS 3 Zrotation Yrotation Xrotation
							JOINT Right_wrist
							{
								OFFSET -0.237599 0.007976 -0.003742
								CHANNELS 3 Zrotation Yrotation Xrotation
								JOINT Right_palm
								{
									OFFSET -0.076920 -0.006943 -0.009920
									CHANNELS 3 Zrotation Yrotation Xrotation
									End Site
									{
										OFFSET 0.000000 0.000000 0.000000
									}
								}
							}
						}
					}
				}
			}
		}
	}
}
MOTION
Frames: 14
Frame Time: 0.100000
0.000000 0.000000 0.000000 177.085198 26.468841 -26.512421 2.922309 5.833407 19.296298 1.313667 -9.725183 -2.161306 3.945189 6.313093 -4.505510 -8.461885 9.151168 -2.832460 -4.298629 -5.980886 22.468377 -1.375106 0.433135 -3.644718 -5.460323 -7.315405 -6.808095 11.731797 -3.473798 8.889434 1.677958 0.330922 4.634496 0.001529 -4.039629 7.712218 -0.337715 -3.136295 -0.842625 -3.927801 -7.918528 11.803881 -6.097129 -8.494813 1.760195 -31.547758 2.729295 6.471670 -52.076130 -6.128491 5.631727 3.794652 -15.473254 11.561445 -13.928684 3.621829 -5.148190 -7.811678 -3.356297 -8.200007 32.740441 2.958059 4.081764 51.833048 4.777952 9.717389 -8.319659 12.938329 -5.878379 7.848122 -3.958105 -3.021496 11.683193 8.452733 -3.559107 
0.003384 0.001046 -0.004692 177.011940 27.030878 -26.476829 2.937187 5.748423 19.139652 1.258676 -9.784496 -2.707085 3.845455 6.167309 -4.036213 -8.537549 9.081073 -2.790773 -4.189424 -6.031927 22.276214 -1.447724 0.458124 -3.890385 -5.473949 -7.825685 -6.557861 11.686047 -2.976588 8.954957 1.619687 0.397973 4.575673 0.098953 -3.971394 7.565945 -0.259324 -3.044287 -0.830716 -3.178856 -7.810301 11.208028 -5.530861 -8.459088 2.346540 -31.407404 2.040981 6.456148 -51.393846 -6.691885 6.212080 3.284950 -15.910322 13.089756 -13.675830 3.442442 -3.757531 -7.624830 -3.361126 -8.192576 32.814893 3.629593 4.399081 51.465928 4.594924 10.311687 -6.606851 10.983536 -3.938880 8.132186 -4.135345 -1.444666 11.366979 8.368858 -3.667750 
0.006490 0.002445 -0.010834 176.668457 28.015464 -26.393848 2.875640 5.390614 17.857288 1.081509 -10.002180 -2.032842 3.931362 5.766509 -3.971373 -8.783710 9.274974 -2.754625 -3.966020 -6.204027 21.293314 -1.426016 -0.143068 -3.136099 -5.606968 -8.208179 -6.624905 11.666344 -2.939401 8.938799 1.459282 0.533938 5.523179 0.232909 -3.913159 7.204460 0.030812 -2.961074 -1.065936 -1.997199 -8.150027 10.170528 -4.165621 -8.524060 2.085619 -31.759746 1.406055 6.321916 -51.595800 -7.529159 6.023350 3.672118 -15.243357 11.999239 -13.629271 3.543209 -3.635772 -7.253941 -3.354293 -7.993515 32.783111 4.199042 4.680515 51.659263 4.321067 10.326918 -6.251286 9.846070 -4.246580 8.535237 -4.275749 -1.620958 10.850435 8.246437 -3.456092 
0.008083 0.003250 -0.013872 176.617715 28.655973 -26.773289 2.807416 5.293229 18.002804 1.056021 -10.387389 -2.028947 3.913999 5.597196 -3.872443 -8.764444 9.446803 -2.830189 -4.013989 -6.179367 21.358301 -1.437520 -0.369788 -2.597377 -5.964567 -8.586717 -6.843547 11.943099 -2.886112 9.112290 1.395782 0.543195 5.678399 0.222079 -3.924577 7.658658 -0.039972 -2.998938 -0.966892 -1.795725 -8.598744 10.637987 -4.077712 -8.930381 2.350847 -32.082615 1.286269 6.669079 -51.628333 -7.464991 6.086936 3.644118 -15.471337 11.714792 -13.785291 3.586826 -4.172225 -7.163475 -3.334124 -7.979052 32.974718 4.434647 4.836693 51.558118 4.470846 10.276566 -6.509032 10.431653 -4.504720 8.487098 -4.337718 -1.768911 10.749806 8.243301 -3.339521 
0.009761 0.003493 -0.015390 176.559749 29.221229 -27.100718 2.816308 5.126719 17.833773 0.892698 -10.773330 -1.599398 3.875722 5.404419 -3.840759 -8.715902 9.594935 -3.026719 -4.063087 -6.194658 21.209091 -1.358272 -0.636731 -1.883887 -6.188441 -9.015930 -6.981036 12.033910 -2.646865 9.160587 1.316370 0.586144 5.829596 0.197265 -3.817434 7.725622 -0.121040 -2.953793 -0.829724 -1.698624 -8.726841 12.001030 -4.227804 -8.948535 3.583675 -32.026303 1.477789 6.907859 -51.512789 -7.479170 5.741372 3.644717 -14.894772 10.724768 -14.048075 3.634697 -5.193622 -6.878145 -3.259364 -7.782605 32.916366 4.561094 5.001039 51.544660 4.788640 10.436358 -6.456366 10.752703 -4.531875 8.485225 -4.381421 -2.036299 10.528956 8.176000 -3.047733 
0.010739 0.003882 -0.011972 176.311556 30.361206 -28.617718 2.880995 4.872917 18.625899 0.872428 -11.755295 -0.280741 4.674449 5.299382 -4.286908 -9.707605 10.056793 -3.264082 -4.125084 -6.440033 22.341479 -1.363856 -0.901322 -0.533734 -7.428556 -9.530297 -7.575366 13.652075 -2.855732 9.670900 0.978730 0.784973 5.531470 0.204727 -3.757542 8.431490 -0.398895 -2.897621 -0.577876 -1.523941 -8.950222 16.503939 -4.730948 -8.813703 6.396508 -32.200451 1.507138 7.493234 -50.561635 -7.915786 5.487060 3.634760 -15.190311 10.611537 -14.709796 4.282034 -5.692392 -6.728471 -3.202742 -7.585352 33.311639 4.632459 5.511548 51.466180 5.164345 10.406704 -6.378667 10.632785 -4.619850 8.906486 -4.845247 -2.278518 10.466249 8.266611 -2.686685 
0.012336 0.002538 -0.005514 176.462835 30.702609 -29.775793 3.720477 5.307481 20.448069 0.516359 -12.690035 -0.817853 4.850137 4.614841 -4.295037 -10.396091 10.443090 -3.605364 -4.794411 -7.212617 23.971136 -1.021278 -0.734876 -0.553710 -8.216354 -9.200559 -8.006332 15.509891 -2.999642 10.051927 0.882058 1.027802 4.380768 0.246311 -3.411176 9.043292 -0.649983 -2.737298 -0.375673 -1.597399 -6.950331 22.181868 -6.400345 -6.690939 9.968417 -32.873502 2.684695 7.265453 -49.597768 -8.223982 5.206183 3.504581 -16.047751 10.941178 -14.878944 4.793543 -5.684006 -6.997630 -3.350752 -7.476978 34.294840 3.450454 5.480433 50.498059 5.964592 10.491070 -6.249444 11.011060 -4.622785 8.833813 -5.129927 -1.842642 11.085767 8.518665 -2.500249 
0.024585 0.002316 -0.009641 176.260166 33.266036 -27.554078 3.607194 4.784498 17.725206 0.623309 -13.042379 -2.473571 2.384603 3.354761 -2.579294 -8.002645 9.478115 -4.306447 -4.333784 -7.626174 21.212636 -0.958058 -2.216311 -0.494990 -6.575929 -9.679589 -7.797319 12.997893 -2.765316 8.673939 0.989981 0.819054 5.533302 -0.016012 -3.204576 7.259149 -0.056403 -2.726422 -0.553775 -1.637350 -2.234399 16.203892 -6.151214 -2.710607 6.391324 -31.577933 3.397516 6.208157 -50.937306 -7.055171 6.039969 3.374429 -18.973103 12.819833 -13.084060 3.179778 -4.766580 -7.048880 -3.438737 -7.893291 33.166939 1.943096 4.829915 51.776225 4.882045 10.658833 -7.115371 13.548089 -4.576286 8.033648 -3.658755 -2.727599 10.882619 8.125072 -2.748866 
0.044082 0.004848 -0.020852 175.419949 38.262002 -25.782689 2.993992 3.287618 11.986864 0.168695 -13.417603 -0.423169 1.470674 1.571175 -1.296699 -7.893501 9.281562 -4.267157 -3.514652 -8.456205 17.938577 -0.933426 -4.655717 -0.251841 -6.853257 -10.694261 -7.626003 12.334301 -3.285899 8.218662 1.552188 1.274513 9.319139 -0.772597 -3.141661 6.814091 0.634073 -2.224276 -0.973633 -3.014876 2.858433 7.162229 -5.187347 2.016119 -1.729782 -30.524074 -0.452295 5.718234 -50.270464 -7.403258 6.503388 2.992023 -19.673142 14.366599 -12.386759 2.441866 -3.344470 -6.919000 -3.624623 -8.171150 31.760891 4.393479 6.169472 52.699677 4.454812 10.267067 -7.121812 13.890222 -3.968511 8.290967 -2.817117 -3.353662 10.609132 8.009758 -3.208285 
0.066603 0.008497 -0.029821 174.117729 43.986666 -24.861241 2.201857 0.817096 6.329963 -0.025628 -14.118766 1.817757 -0.089977 0.530943 0.481374 -6.711607 8.888758 -5.344512 -2.482442 -8.936917 14.393922 -0.950083 -7.546908 1.234020 -7.361000 -12.466423 -7.940992 11.737653 -3.337646 8.291792 2.469023 1.502692 12.750176 -1.291730 -2.527823 5.765575 1.055859 -1.492843 -0.935350 -4.873602 5.795009 2.308061 -5.264383 4.821194 -4.840721 -28.871646 -2.022342 5.212690 -50.499276 -8.103905 7.418205 3.975967 -27.363233 14.792554 -11.003289 0.618943 -5.193565 -5.576638 -3.259765 -6.494104 30.154298 6.528455 7.167688 52.596706 4.603782 10.703420 -6.710289 15.361129 -2.497987 8.001802 -1.937772 -3.169138 9.022830 7.428245 -2.605362 
0.087220 0.010858 -0.034246 172.542155 48.949487 -25.031038 1.731825 -1.400844 2.797036 0.209083 -14.784688 2.789089 -2.272359 0.175800 1.647589 -4.415524 8.383171 -6.914465 -1.652423 -9.252101 12.820671 -0.824922 -10.113019 1.231502 -7.031802 -13.747825 -8.194800 10.450294 -3.477999 8.411452 3.079165 1.544781 14.478773 -1.305662 -1.928727 4.653502 1.384059 -1.004910 -0.496666 -5.436877 4.493616 1.721290 -4.411931 3.949494 -4.743515 -26.627244 -0.030192 4.955365 -52.396870 -8.316214 8.544773 8.140715 -43.802421 12.683763 -8.291718 -2.120882 -10.969662 -3.629508 -2.577505 -3.142941 27.685220 6.385822 6.767437 52.645477 4.202307 11.069129 -8.143771 21.798344 -1.982469 6.785918 -0.881764 -4.063470 6.809545 6.672035 -1.026568 
0.105719 0.014023 -0.039250 171.608313 50.974265 -24.301767 1.960152 -3.374582 -3.034446 -0.192688 -12.877612 7.796431 -3.330749 1.293736 1.183299 -2.061137 8.271917 -8.892676 -0.666411 -9.286058 8.797275 -1.076118 -12.038756 3.827723 -5.816328 -13.583392 -9.685216 8.429016 -4.002809 7.928938 3.509752 1.711573 16.683492 -1.263652 -0.919961 2.229499 1.596802 -0.346383 -0.204996 -6.191445 3.036607 1.719598 -3.808912 2.739622 -3.084597 -23.881173 2.738561 4.100045 -54.766160 -9.578977 9.228784 22.194719 -63.382172 0.211808 -3.931435 -4.239141 -18.290411 -1.776188 -1.880252 1.226667 24.865912 5.422278 5.804275 53.384500 4.266879 11.435194 -12.059785 31.278134 -3.969474 4.699606 0.410925 -6.203455 4.639464 5.964937 0.739900 
0.116892 0.016170 -0.040229 169.622969 52.240852 -32.522553 3.007490 -0.985170 2.342157 1.094656 -9.785909 10.561033 -5.050768 4.380709 2.165325 -1.121895 12.862608 -9.547468 -0.866460 -10.641181 17.937821 -0.637666 -13.038589 0.400113 -5.911842 -12.678951 -5.999460 12.246201 -6.806015 2.556762 4.019562 1.360377 21.661464 -1.869182 -1.118434 7.543594 2.692877 -0.770695 -0.032450 -6.964641 -0.981239 3.182829 -2.637742 2.735778 -8.182708 -22.864485 -0.226416 3.484819 -54.158272 -13.983737 8.847194 67.306808 -69.677271 -42.301332 -0.828070 -6.368892 -25.823324 5.128533 -0.623367 7.246820 22.059009 9.543933 4.644661 54.815267 4.930891 12.044822 -18.632266 38.271411 -9.610160 -1.562736 1.453220 -6.214909 1.731785 4.950287 2.775894 
0.120001 0.017030 -0.038993 169.260334 52.153759 -33.361403 4.703781 -0.668271 0.931914 0.799987 -8.365408 12.990936 -5.296577 4.195542 3.094336 -1.622586 13.792504 -9.552235 -0.906336 -11.017119 18.845630 -0.122683 -13.232091 -0.072568 -7.008325 -11.984606 -6.080996 14.312604 -6.989615 3.060760 3.315093 1.738765 22.376693 -1.700907 -1.944879 7.799941 2.624838 -1.020407 -0.253720 -6.366817 -0.482542 4.340659 -1.559112 1.925514 -6.606127 -22.017301 -2.956593 2.474222 -49.778818 -19.162206 6.641031 81.820127 -66.704727 -59.036732 -0.070591 -6.093301 -27.896007 5.566596 -0.647632 9.864043 22.220838 10.195671 3.991141 55.521242 5.177894 12.959215 -24.341234 44.233410 -12.892242 -1.054769 1.799913 -7.693218 1.419047 5.249959 4.165974 
